<svg width="900" height="1200" viewBox="0 0 900 1200" fill="none" xmlns="http://www.w3.org/2000/svg">
  <rect width="900" height="1200" fill="#F6FAFE"/>
  <rect x="62" y="62" width="776" height="1076" rx="48" fill="#EEF5FB"/>
  <circle cx="708" cy="248" r="180" fill="#CCE6FF"/>
  <path d="M170 835C170 701.347 278.347 593 412 593H511C644.653 593 753 701.347 753 835V889C753 999.457 663.457 1089 553 1089H370C259.543 1089 170 999.457 170 889V835Z" fill="#D9EAF8"/>
  <rect x="282" y="352" width="308" height="322" rx="154" fill="#B7D8F4"/>
  <path d="M328 391H544C575.928 391 601.5 416.572 601.5 448.5C601.5 480.428 575.928 506 544 506H504" stroke="#0B65C6" stroke-width="18"/>
  <path d="M252 792H671" stroke="#0B65C6" stroke-width="14" stroke-linecap="round"/>
  <text x="110" y="1100" fill="#0B65C6" font-family="Inter, Arial, sans-serif" font-size="42" letter-spacing="0.32em">BLUE DATE</text>
</svg>
