<svg width="900" height="1200" viewBox="0 0 900 1200" fill="none" xmlns="http://www.w3.org/2000/svg">
  <rect width="900" height="1200" fill="#F7FBFF"/>
  <circle cx="227" cy="242" r="170" fill="#D7EBFF"/>
  <circle cx="721" cy="965" r="152" fill="#E3F0FB"/>
  <rect x="120" y="118" width="660" height="964" rx="48" fill="#F0F6FC"/>
  <rect x="252" y="300" width="398" height="168" rx="84" fill="#B7D9F7"/>
  <path d="M279 645C279 583.144 329.144 533 391 533H510C571.856 533 622 583.144 622 645V847C622 908.856 571.856 959 510 959H391C329.144 959 279 908.856 279 847V645Z" fill="#DCECF9"/>
  <path d="M350 609H557C594.555 609 625 639.445 625 677C625 714.555 594.555 745 557 745H522" stroke="#106FD6" stroke-width="18"/>
  <path d="M240 1000H656" stroke="#106FD6" stroke-width="12" stroke-linecap="round"/>
  <text x="158" y="186" fill="#106FD6" font-family="Inter, Arial, sans-serif" font-size="38" letter-spacing="0.26em">DNIPRO / UKRAINE</text>
</svg>
